# xmcd
#
# Track frame offsets: 
#        150
#        15487
#        32959
#        47561
#        61799
#        76186
#        91452
#        105794
#        118913
#        134467
#        155745
#        170613
#        190770
#        202484
#        217654
#        232320
#
# Disc length: 3303 seconds
#
# Revision: 9
# Processed by: cddbd v1.5.2PL0 Copyright (c) Steve Scherf et al.
# Submitted via: ExactAudioCopyFreeDBPlugin 1.0
#
DISCID=da0ce510
DTITLE=沢田研二 - Julie Special
DYEAR=1986
DGENRE=J-Pop
TTITLE0=君をのせて
TTITLE1=許されない愛
TTITLE2=あなただけでいい
TTITLE3=死んでもいい
TTITLE4=あなたへの愛
TTITLE5=危険なふたり
TTITLE6=胸いっぱいの悲しみ
TTITLE7=魅せられた夜
TTITLE8=恋は邪魔もの
TTITLE9=追憶
TTITLE10=愛の逃亡者
TTITLE11=白い部屋
TTITLE12=巴里にひとり
TTITLE13=時の過ぎゆくままに
TTITLE14=立ちどまるなふりむくな
TTITLE15=ウィンクでさよなら
EXTD=YEAR: 1986
EXTT0=
EXTT1=
EXTT2=
EXTT3=
EXTT4=
EXTT5=
EXTT6=
EXTT7=
EXTT8=
EXTT9=
EXTT10=
EXTT11=
EXTT12=
EXTT13=
EXTT14=
EXTT15=
PLAYORDER=
